<?xml version="1.0" encoding="utf-8"?>
<!-- Generator: Adobe Illustrator 15.0.2, SVG Export Plug-In  -->
<!DOCTYPE svg PUBLIC "-//W3C//DTD SVG 1.0//EN" "http://www.w3.org/TR/2001/REC-SVG-20010904/DTD/svg10.dtd" [
	<!ENTITY ns_flows "http://ns.adobe.com/Flows/1.0/">
]>
<svg version="1.0"
	 xmlns="http://www.w3.org/2000/svg" xmlns:xlink="http://www.w3.org/1999/xlink" xmlns:a="http://ns.adobe.com/AdobeSVGViewerExtensions/3.0/"
	 x="0px" y="0px" width="425px" height="198px" viewBox="-7.507 -3.718 425 198"
	 overflow="visible" enable-background="new -7.507 -3.718 425 198" xml:space="preserve">
<defs>
</defs>
<path fill="#FFFFFF" d="M198.167,28.343c4.791,0,9.428,1.768,10.043,6.398c0.795,6.093,0.685,12.788-2.906,22.952
	c0.963-2.75-9.186-6.458-17.174-3.864c-11.762,3.819-19.794,23.79-30.609,50.833c-2.16,5.565-4.944,8.497-12.663,8.497
	c-3.091,0-6.959-0.464-12.056-1.396c11.894-30.432,17.301-57.935,17.301-68.743c0-4.02-0.458-7.578-1.7-10.197
	c6.805-2.938,12.211-4.331,16.223-4.331c4.787,0,8.188,2.937,8.188,7.885c0,6.177-2.31,15.14-4.941,25.492
	c11.586-20.397,20.257-33.377,29.521-33.526C197.706,28.343,197.862,28.343,198.167,28.343z"/>
<path fill="#FFFFFF" d="M133.274,88.128c2.166,3.865,1.848,8.657-0.928,12.207c-2.63,3.238-6.484,6.178-11.587,8.34
	c-7.729,3.562-15.76,5.258-24.405,5.258c-18.081,0-28.431-7.875-29.207-23.795c-0.767-15.908,4.795-31.519,15.454-43.1
	c10.347-12.363,27.098-20.334,40.848-20.334c12.977,0,19.156,5.562,19.001,16.071c0,10.506-17.054,25.268-37.91,32.682
	c-4.951,1.698-14.989,6.181-15.136,10.2c-0.165,3.705,0.308,6.953,1.696,8.963c3.4,4.941,8.961,7.876,14.827,7.103
	C116.9,100.644,125.24,95.853,133.274,88.128z M90.943,75.151c2.625-5.716,7.259-7.729,12.974-10.814
	c9.889-5.406,12.665-10.508,14.215-15.912c1.548-5.404-0.307-10.041-5.869-10.041c-8.346,0-15.297,10.656-19.774,29.812
	C92.489,68.196,91.866,70.826,90.943,75.151z"/>
<path fill="#FFFFFF" d="M286.286,49.815c0,29.971-23.329,63.033-49.905,63.033c-4.944,0-10.046-0.929-14.528-2.931
	c-1.691,6.633-3.389,10.584-3.389,17.231c0,2.472,0.775,5.092,1.538,7.719c-5.558,2.783-10.814,3.867-14.514,3.867
	c-6.341,0-9.283-3.093-9.283-8.656c0-2.16,0.322-4.786,0.933-7.567c1.086-4.323,13.752-54.157,15.608-62.191
	c2.012-8.653,3.239-15.296,3.239-21.937c0-2.475-0.462-4.949-1.541-7.265c6.175-2.776,11.433-4.014,15.92-4.014
	c5.709,0,8.795,2.312,8.795,7.105c0,2.782-2.007,11.898-5.252,24.259c8.964-14.367,21.173-29.819,35.997-29.819
	c1.239,0,2.472,0.149,3.865,0.31C282.73,30.19,286.286,40.54,286.286,49.815z M263.579,54.449c0-6.024-1.396-9.425-4.795-9.425
	c-8.035,0-27.348,31.364-33.371,48.359c0.922,4.322,7.262,7.413,12.518,7.413c13.127,0,24.558-23.79,25.648-44.49
	C263.579,55.683,263.579,55.069,263.579,54.449z"/>
<path fill="#FFFFFF" d="M81.81,114.25c0.62,1.871,0.935,3.744,0.935,5.616c0,10.616-8.588,18.586-18.732,18.586
	c-12.488,0-23.578-13.745-35.44-18.896c-5.937-2.502-12.335-3.9-18.737-3.9c-3.123,0-6.084,0.314-9.054,0.778
	C0.314,114.714,0,112.839,0,110.974c0-4.844,1.876-9.687,5.152-13.271c9.523-10.619,25.451-27.48,41.529-48.244
	c-7.807,0.623-13.421,0.776-16.858,0.776c-10.46,0-14.673-3.583-14.673-7.96c0-3.433,3.585-9.678,7.173-14.359
	c5.157,3.121,14.06,4.682,26.385,4.682c11.244,0,18.267-0.938,27.636-2.808c0.313,1.247,0.473,2.499,0.473,3.903
	c0,3.586-1.25,7.178-3.75,10.146c-3.433,4.056-23.102,26.699-26.385,30.285c-8.898,9.99-18.418,18.42-24.51,26.696
	c8.274,0.156,18.109,5.31,25.604,10.461c7.027,4.84,16.238,7.654,22.326,7.654C74.627,118.936,78.371,117.53,81.81,114.25z"/>
<path fill="#FFFFFF" d="M314.156,100.931c-0.452,0.202-0.935,0.353-1.414,0.492c-1.117,0.153-2.275,0.249-3.43,0.3
	c-1.249-0.097-2.468-0.404-3.643-0.908c-0.574-1.318-1.045-3.058-1.045-5.474c0-3.859,1.71-9.495,2.789-14.438
	c0.458-1.546,0.767-3.092,1.074-4.473l0.156-0.932c2.933-3.867,11.736-21.559,16.983-33.611c3.239-7.568,6.179-15.295,6.948-21.779
	c0.312-2.017,0.312-3.868,0.312-5.414c0-3.55-0.465-5.404-0.465-5.562c-0.155-0.929-0.617-1.696-1.23-2.319
	c-4.33-3.241-8.658-4.478-13.136-4.784c-2.318-0.159-5.104,0.306-7.574,2.001c-2.475,1.705-4.48,4.332-5.254,6.65
	c-7.219,23.997-14.848,55.499-20.567,79.877c-0.027,0.096-0.048,0.201-0.069,0.303c-1.086,1.684-9.61,12.687-8.989,12.687
	c0.459,0,3.367-2.094,7.986-7.714c-0.006,0.096-0.149,1.226-0.438,2.375c-0.6,3.812,0-0.48-0.21,2.011l-0.032,0.019
	c0.005,0.021,0.021,0.038,0.021,0.062c-0.108,1.31-0.15,2.528-0.101,3.693c0,9.58,5.57,14.059,13.751,14.059
	c4.825,0,12.962-2.676,20.115-7.391c2.342-1.396,4.528-2.926,6.314-4.451c3.104-2.486,7.972-8.648,9.157-11.401
	c1.229-2.999,0.504-6.371-1.74-8.618C326.373,93.099,321.544,98.041,314.156,100.931z M318.524,36.479
	c2.006-6.956,4.329-13.905,6.947-20.855c0.311-0.929,0.778-1.854,1.24-2.627c0.77-1.394,2.776-0.776,2.776,0.772
	c0.158,1.546,0,3.557-0.15,5.716c-0.619,5.872-2.965,13.724-6.204,20.99c-3.253,7.72-9.315,21.038-12.335,26.367
	C312.81,59.122,316.05,44.049,318.524,36.479z"/>
<path fill="#FFFFFF" d="M390.853,29.143c-1.258,0-3.939,0.155-5.834,0.474c1.895,2.051,1.511,7.255,1.511,10.098
	c0,11.354-6.151,31.265-21.769,53.348c-0.695-9.819-1.758-21.203-3.047-32.301l0,0c-1.077-12.73-1.7-22.568-1.7-25.352
	c0-4.79-3.089-7.105-8.812-7.105c-4.479,0-10.683,1.237-16.854,4.017c1.079,2.319,1.947,4.832,2.427,7.256
	c1.103,5.677,1.887,8.681,2.93,15.269c0.293,2.223,0.639,4.559,1.021,7.016c0,0.021,0.003,0.035,0.013,0.057l0,0
	c1.484,9.602,3.507,21.078,5.251,35.25c0.316,2.358,0.632,5.196,0.632,7.887c0,2.998-0.665,5.479-1.411,7.255
	c-10.164,23.983-37.391,24.346-37.391,24.766c0,0.628,0,2.684,0.158,3.153c0.938,5.047,6.773,7.57,13.564,7.57
	c11.671,0,31.095-8.04,54.273-38.805c25.08-32.964,34.372-60.568,34.372-70.508C410.187,31.224,402.374,29.143,390.853,29.143z"/>
<linearGradient id="SVGID_1_" gradientUnits="userSpaceOnUse" x1="170.7065" y1="26.3423" x2="170.7065" y2="111.1597">
	<stop  offset="0" style="stop-color:#63625E"/>
	<stop  offset="1" style="stop-color:#514F4E"/>
</linearGradient>
<path fill="url(#SVGID_1_)" d="M198.167,26.342c4.791,0,9.428,1.768,10.043,6.399c0.795,6.093,0.685,12.788-2.907,22.952
	c0.964-2.75-9.185-6.458-17.173-3.864c-11.762,3.819-19.794,23.79-30.61,50.833c-2.16,5.565-4.944,8.497-12.663,8.497
	c-3.091,0-6.959-0.464-12.056-1.396c11.894-30.432,17.301-57.935,17.301-68.743c0-4.02-0.458-7.579-1.7-10.197
	c6.805-2.938,12.211-4.332,16.223-4.332c4.787,0,8.188,2.936,8.188,7.885c0,6.177-2.31,15.14-4.941,25.492
	c11.586-20.397,20.257-33.377,29.521-33.527C197.706,26.342,197.862,26.342,198.167,26.342z"/>
<linearGradient id="SVGID_2_" gradientUnits="userSpaceOnUse" x1="104.7642" y1="24.7041" x2="104.7642" y2="111.9331">
	<stop  offset="0" style="stop-color:#63625E"/>
	<stop  offset="1" style="stop-color:#514F4E"/>
</linearGradient>
<path fill="url(#SVGID_2_)" d="M133.274,86.128c2.166,3.865,1.848,8.657-0.928,12.207c-2.63,3.238-6.484,6.178-11.587,8.34
	c-7.729,3.562-15.76,5.258-24.405,5.258c-18.081,0-28.431-7.875-29.207-23.794c-0.767-15.909,4.795-31.519,15.454-43.1
	c10.347-12.364,27.098-20.334,40.848-20.334c12.977,0,19.156,5.562,19.001,16.071c0,10.506-17.054,25.268-37.91,32.682
	c-4.951,1.699-14.989,6.18-15.136,10.2c-0.165,3.706,0.308,6.953,1.696,8.963c3.4,4.941,8.961,7.876,14.827,7.103
	C116.9,98.644,125.24,93.853,133.274,86.128z M90.943,73.151c2.625-5.715,7.259-7.728,12.974-10.813
	c9.889-5.407,12.665-10.508,14.215-15.913c1.548-5.404-0.307-10.042-5.869-10.042c-8.346,0-15.297,10.656-19.774,29.812
	C92.489,66.196,91.866,68.826,90.943,73.151z"/>
<linearGradient id="SVGID_3_" gradientUnits="userSpaceOnUse" x1="241.2461" y1="25.1055" x2="241.2461" y2="136.7358">
	<stop  offset="0" style="stop-color:#63625E"/>
	<stop  offset="1" style="stop-color:#514F4E"/>
</linearGradient>
<path fill="url(#SVGID_3_)" d="M286.286,47.815c0,29.971-23.329,63.034-49.905,63.034c-4.944,0-10.046-0.929-14.528-2.931
	c-1.691,6.633-3.389,10.584-3.389,17.231c0,2.472,0.775,5.092,1.538,7.719c-5.558,2.783-10.814,3.867-14.514,3.867
	c-6.341,0-9.283-3.093-9.283-8.656c0-2.16,0.322-4.786,0.932-7.567c1.087-4.323,13.752-54.157,15.609-62.191
	c2.012-8.654,3.239-15.296,3.239-21.937c0-2.474-0.462-4.948-1.541-7.264c6.175-2.777,11.433-4.014,15.92-4.014
	c5.709,0,8.795,2.312,8.795,7.105c0,2.783-2.007,11.898-5.252,24.258c8.964-14.367,21.173-29.819,35.997-29.819
	c1.239,0,2.472,0.15,3.865,0.31C282.73,28.191,286.286,38.541,286.286,47.815z M263.579,52.449c0-6.024-1.396-9.425-4.795-9.425
	c-8.035,0-27.348,31.364-33.371,48.359c0.922,4.322,7.262,7.413,12.518,7.413c13.127,0,24.558-23.791,25.648-44.49
	C263.579,53.683,263.579,53.069,263.579,52.449z"/>
<linearGradient id="SVGID_4_" gradientUnits="userSpaceOnUse" x1="41.3721" y1="25.9146" x2="41.3721" y2="136.4526">
	<stop  offset="0" style="stop-color:#63625E"/>
	<stop  offset="1" style="stop-color:#514F4E"/>
</linearGradient>
<path fill="url(#SVGID_4_)" d="M81.81,112.25c0.62,1.871,0.935,3.744,0.935,5.616c0,10.616-8.588,18.586-18.732,18.586
	c-12.488,0-23.578-13.745-35.44-18.896c-5.937-2.502-12.335-3.9-18.737-3.9c-3.123,0-6.084,0.314-9.054,0.778
	C0.314,112.714,0,110.839,0,108.974c0-4.844,1.876-9.687,5.152-13.271c9.523-10.62,25.451-27.481,41.529-48.244
	c-7.807,0.623-13.421,0.776-16.858,0.776c-10.46,0-14.673-3.583-14.673-7.959c0-3.433,3.585-9.678,7.173-14.36
	c5.157,3.121,14.06,4.682,26.385,4.682c11.244,0,18.267-0.938,27.636-2.808c0.313,1.247,0.473,2.499,0.473,3.903
	c0,3.585-1.25,7.178-3.75,10.146c-3.433,4.056-23.102,26.7-26.385,30.285c-8.898,9.99-18.418,18.42-24.51,26.696
	c8.274,0.156,18.109,5.31,25.604,10.461c7.027,4.84,16.238,7.654,22.326,7.654C74.627,116.936,78.371,115.53,81.81,112.25z"/>
<linearGradient id="SVGID_5_" gradientUnits="userSpaceOnUse" x1="304.2295" y1="0" x2="304.2295" y2="116.0522">
	<stop  offset="0" style="stop-color:#63625E"/>
	<stop  offset="1" style="stop-color:#514F4E"/>
</linearGradient>
<path fill="url(#SVGID_5_)" d="M314.156,98.931c-0.452,0.202-0.935,0.353-1.414,0.492c-1.117,0.153-2.275,0.249-3.43,0.3
	c-1.249-0.097-2.468-0.404-3.643-0.908c-0.574-1.318-1.045-3.058-1.045-5.474c0-3.86,1.71-9.495,2.789-14.438
	c0.458-1.546,0.767-3.091,1.074-4.472l0.156-0.932c2.933-3.867,11.736-21.559,16.983-33.611c3.239-7.569,6.179-15.295,6.948-21.78
	c0.312-2.016,0.312-3.868,0.312-5.413c0-3.55-0.465-5.405-0.465-5.563c-0.155-0.929-0.617-1.696-1.23-2.319
	c-4.33-3.241-8.658-4.478-13.136-4.784c-2.318-0.159-5.104,0.306-7.574,2.001c-2.475,1.705-4.48,4.332-5.254,6.65
	c-7.219,23.997-14.848,55.499-20.567,79.877c-0.027,0.095-0.048,0.2-0.069,0.302c-1.086,1.684-9.61,12.687-8.989,12.687
	c0.459,0,3.367-2.094,7.986-7.714c-0.006,0.096-0.149,1.226-0.438,2.375c-0.6,3.812,0-0.48-0.21,2.011l-0.032,0.019
	c0.005,0.021,0.021,0.038,0.021,0.062c-0.108,1.31-0.15,2.528-0.101,3.693c0,9.58,5.57,14.059,13.751,14.059
	c4.825,0,12.962-2.676,20.115-7.391c2.342-1.396,4.528-2.926,6.314-4.451c3.104-2.486,7.972-8.648,9.157-11.401
	c1.229-2.999,0.504-6.371-1.74-8.618C326.373,91.098,321.544,96.041,314.156,98.931z M318.524,34.479
	c2.006-6.956,4.329-13.905,6.947-20.855c0.311-0.928,0.778-1.854,1.24-2.627c0.77-1.393,2.776-0.776,2.776,0.773
	c0.158,1.545,0,3.556-0.15,5.715c-0.619,5.872-2.965,13.723-6.204,20.99c-3.253,7.72-9.315,21.038-12.335,26.367
	C312.81,57.122,316.05,42.049,318.524,34.479z"/>
<linearGradient id="SVGID_6_" gradientUnits="userSpaceOnUse" x1="359.0029" y1="26.3037" x2="359.0029" y2="145.7983">
	<stop  offset="0" style="stop-color:#63625E"/>
	<stop  offset="1" style="stop-color:#514F4E"/>
</linearGradient>
<path fill="url(#SVGID_6_)" d="M390.853,27.143c-1.258,0-3.939,0.155-5.834,0.473c1.895,2.052,1.511,7.255,1.511,10.098
	c0,11.353-6.151,31.265-21.769,53.348c-0.695-9.82-1.758-21.203-3.047-32.301l0,0c-1.077-12.731-1.7-22.569-1.7-25.352
	c0-4.79-3.089-7.105-8.812-7.105c-4.479,0-10.683,1.237-16.854,4.017c1.079,2.319,1.947,4.832,2.427,7.256
	c1.103,5.676,1.887,8.681,2.93,15.268c0.293,2.223,0.639,4.559,1.021,7.016c0,0.021,0.003,0.036,0.013,0.057l0,0
	c1.484,9.601,3.507,21.078,5.251,35.25c0.316,2.358,0.632,5.196,0.632,7.887c0,2.998-0.665,5.479-1.411,7.255
	c-10.164,23.983-37.391,24.346-37.391,24.766c0,0.628,0,2.684,0.158,3.153c0.938,5.047,6.773,7.57,13.564,7.57
	c11.671,0,31.095-8.04,54.273-38.805c25.08-32.964,34.372-60.568,34.372-70.507C410.187,29.224,402.374,27.143,390.853,27.143z"/>
</svg>
